<?xml version="1.0" encoding="UTF-8"?><svg id="Capa_1" xmlns="http://www.w3.org/2000/svg" viewBox="0 0 136.83 72.53"><path d="M18.06,10.26c0,8.01-1.82,11.5-8.95,11.5-4.01,0-5.34-.24-8.07-1V0H9.1c5.71,0,8.95,2.4,8.95,10.26ZM3.73,2.15V18.82c1.64,.52,2.61,.67,5.19,.67,5.01,0,6.34-2.61,6.34-9.2S13.02,2.15,8.92,2.15H3.73Z"/><path d="M36.87,2.22h-10.96v6.98h9.89v2.09h-9.89v7.74h11.23v2.22h-13.93V0h13.66V2.22Z"/><path d="M51.01,21.24h-3.88L39.78,0h2.85l6.43,19L55.5,0h2.85l-7.34,21.24Z"/><path d="M76.05,2.22h-10.96v6.98h9.89v2.09h-9.89v7.74h11.23v2.22h-13.93V0h13.66V2.22Z"/><path d="M97.02,21.24h-3.43L82.97,3.49V21.24h-2.55V0h3.43l10.65,17.81V0h2.52V21.24Z"/><path d="M105.24,21.24h-2.7V0h2.7V21.24Z"/><path d="M126.06,6.16c0,2.85-1.06,4.8-3.73,5.58,1.09,.49,2.03,1.43,2.52,2.97l2.06,6.53h-2.85l-1.94-6.1c-.58-1.7-1.52-2.34-2.85-2.34h-1.09c-2.22,0-3.4-.06-4.58-.18v8.62h-2.7V0h8.22c5.19,0,6.95,1.91,6.95,6.16Zm-12.47-4.01V10.44c1.24,.12,2.52,.24,4.92,.24,3.64,0,4.92-1.46,4.92-4.22,0-3.07-1.15-4.31-4.89-4.31h-4.95Z"/><path d="M57.18,35.64c0,8.01-1.94,11.5-9.26,11.5s-9.44-2.97-9.44-11.59c0-8.01,2.94-10.71,9.44-10.68,5.89,0,9.26,2.91,9.26,10.77Zm-15.84-.03c0,7.04,1.31,9.23,6.59,9.23s6.43-2.61,6.43-9.14-2.25-8.53-6.43-8.53c-4.73,0-6.59,2.03-6.59,8.44Z"/><path d="M75.11,27.6h-6.71v19.03h-2.67V27.6h-6.68v-2.22h16.05v2.22Z"/><path d="M94.32,31.54c0,2.85-1.06,4.8-3.73,5.58,1.09,.49,2.03,1.43,2.52,2.97l2.06,6.53h-2.85l-1.94-6.1c-.58-1.7-1.52-2.34-2.85-2.34h-1.09c-2.22,0-3.4-.06-4.58-.18v8.62h-2.7V25.38h8.22c5.19,0,6.95,1.91,6.95,6.16Zm-12.47-4.01v8.29c1.24,.12,2.52,.24,4.92,.24,3.64,0,4.92-1.46,4.92-4.22,0-3.07-1.15-4.31-4.89-4.31h-4.95Z"/><path d="M117.2,35.64c0,8.01-1.94,11.5-9.26,11.5s-9.44-2.97-9.44-11.59c0-8.01,2.94-10.71,9.44-10.68,5.89,0,9.26,2.91,9.26,10.77Zm-15.84-.03c0,7.04,1.31,9.23,6.59,9.23s6.43-2.61,6.43-9.14-2.25-8.53-6.43-8.53c-4.73,0-6.59,2.03-6.59,8.44Z"/><path d="M135.47,25.47l-.24,2.03c-1.91-.12-4.67-.27-6.19-.27-2.76,0-4.89,.67-4.89,3.7,0,1.88,.79,2.55,2.73,3.07l5.43,1.55c2.15,.67,4.25,2.12,4.22,5.77,.03,4.55-3.46,5.8-7.13,5.83-2.12,.03-5.71-.43-8.47-.82l.21-2.06c3.25,.36,5.8,.55,7.59,.55,3,0,5.04-.55,5.04-3.46,0-2.22-1.15-3.04-2.76-3.52l-5.65-1.61c-2.58-.7-4.04-1.91-4.07-5.13,.03-5.1,3.58-6.22,7.07-6.22,2.15,0,5.1,.3,7.1,.61Z"/><path d="M15.78,51.16l-.33,3.28c-1.85-.15-3.46-.3-5.77-.3-3.49,0-4.8,1.67-4.8,6.95,0,5.77,.88,7.56,4.8,7.56,2.64,0,3.67-.06,6.13-.24l.33,3.16c-1.49,.49-3.55,.97-6.4,.97-7.56,0-9.74-2.97-9.74-11.59,0-8.01,3.1-10.71,9.74-10.68,2.43,0,4.4,.39,6.04,.91Z"/><path d="M24.07,62.48c0,4.73,.7,6.16,4.25,6.16s4.16-1.76,4.16-6.13v-11.75h4.64v11.75c0,7.01-1.88,10.02-8.74,10.02s-8.95-2.46-8.95-10.05v-11.71h4.64v11.71Z"/><path d="M55.81,54.43h-9.89v4.86h8.98v3.46h-8.98v5.58h10.23v3.67h-14.81v-21.24h14.48v3.67Z"/><path d="M75.81,56.92c0,2.79-1,4.73-3.55,5.55,1.15,.42,2.15,1.43,2.64,3l1.94,6.53h-4.86l-1.76-5.92c-.46-1.37-1.21-1.88-2.31-1.88h-.85c-1.49,0-2.21-.03-3.07-.09v7.89h-4.58v-21.24h9.47c5.16,0,6.92,1.91,6.92,6.16Zm-11.81-2.61v6.19c.94,.09,1.88,.18,3.7,.18,2.73,0,3.67-1.09,3.67-3.16,0-2.31-.85-3.22-3.64-3.22h-3.73Z"/><path d="M89.4,50.76c5.19,0,6.95,2.22,6.95,7.04,0,4.37-1.91,6.86-7.01,6.86-2.19,0-3.55-.06-4.8-.15v7.5h-4.58v-21.24h9.44Zm-4.86,3.55v6.65c.94,.09,1.88,.18,3.7,.18,2.7,0,3.67-1.15,3.67-3.37,0-2.49-.88-3.46-3.67-3.46h-3.7Z"/><path d="M112.31,61.26l5.92,10.74h-5.16l-4.49-8.95-4.46,8.95h-5.19l5.92-10.77-5.58-10.47h5.19l4.16,8.65,4.1-8.65h5.16l-5.55,10.5Z"/><path d="M135.83,51.03l-.39,3.49c-2.09-.15-4.98-.33-6.46-.33-2.09,0-3.52,.39-3.52,2.4,0,1.18,.52,1.61,1.82,1.94l5.4,1.61c2.31,.7,4.16,2.34,4.16,6.19,.03,4.86-3.4,6.13-6.98,6.19-2.58,.06-6.74-.61-9.62-1.06l.36-3.52c3.28,.46,6.34,.7,8.16,.7,2.12,0,3.37-.33,3.37-2.28,0-1.49-.7-2.06-1.82-2.4l-5.83-1.7c-2.52-.7-3.85-2.15-3.85-5.37,0-5.49,3.58-6.65,7.04-6.65,2.55,0,5.68,.36,8.16,.79Z"/></svg>